<svg width="14" height="15" viewBox="0 0 14 15" fill="none" xmlns="http://www.w3.org/2000/svg">
<path d="M4.49365 9.99346V8.99363H5.78331C5.74053 9.16018 5.71081 9.32574 5.69415 9.49029C5.67748 9.65485 5.67387 9.82257 5.68331 9.99346H4.49365ZM4.44865 13.3333C3.58631 13.3333 2.85153 13.0328 2.24431 12.432C1.63698 11.8312 1.33331 11.1017 1.33331 10.2435V4.21796C0.996534 4.21796 0.709367 4.10018 0.471812 3.86463C0.234256 3.62918 0.115479 3.34307 0.115479 3.00629V1.88463C0.115479 1.54785 0.234256 1.26068 0.471812 1.02313C0.709367 0.78546 0.996534 0.666626 1.33331 0.666626H7.55765C7.89442 0.666626 8.1827 0.78546 8.42248 1.02313C8.66215 1.26068 8.78198 1.54785 8.78198 1.88463V3.00629C8.78198 3.34307 8.66215 3.62918 8.42248 3.86463C8.1827 4.10018 7.89442 4.21796 7.55765 4.21796V6.47179C7.3722 6.59146 7.20148 6.72713 7.04548 6.87879C6.88948 7.03046 6.74953 7.1969 6.62565 7.37813H4.49365V6.37813H6.55765V4.21796H2.33331V10.2435C2.33331 10.829 2.53953 11.3237 2.95198 11.7275C3.36431 12.1313 3.8632 12.3333 4.44865 12.3333C4.76065 12.3333 5.04742 12.2717 5.30898 12.1486C5.57053 12.0256 5.79787 11.8556 5.99098 11.6385C6.05853 11.8051 6.13398 11.9617 6.21731 12.1083C6.30065 12.2548 6.3987 12.3991 6.51148 12.541C6.23715 12.7871 5.92581 12.9807 5.57748 13.1218C5.22926 13.2628 4.85298 13.3333 4.44865 13.3333ZM1.33331 3.21796H7.55765C7.61754 3.21796 7.66987 3.19763 7.71465 3.15696C7.75953 3.1164 7.78198 3.06618 7.78198 3.00629V1.88463C7.78198 1.82474 7.75953 1.77346 7.71465 1.73079C7.66987 1.68801 7.61754 1.66663 7.55765 1.66663H1.33331C1.27353 1.66663 1.22226 1.68801 1.17948 1.73079C1.1367 1.77346 1.11531 1.82474 1.11531 1.88463V3.00629C1.11531 3.06618 1.1367 3.1164 1.17948 3.15696C1.22226 3.19763 1.27353 3.21796 1.33331 3.21796ZM9.89098 11.7691C10.3833 11.7691 10.8013 11.5973 11.1448 11.2538C11.4885 10.9102 11.6603 10.4923 11.6603 9.99996C11.6603 9.50763 11.4885 9.08968 11.1448 8.74613C10.8013 8.40257 10.3833 8.23079 9.89098 8.23079C9.39865 8.23079 8.9807 8.40257 8.63715 8.74613C8.29359 9.08968 8.12181 9.50763 8.12181 9.99996C8.12181 10.4923 8.29359 10.9102 8.63715 11.2538C8.9807 11.5973 9.39865 11.7691 9.89098 11.7691ZM13.291 14.0961L11.4653 12.2705C11.2294 12.4346 10.9792 12.5587 10.7146 12.643C10.4502 12.7271 10.1756 12.7691 9.89098 12.7691C9.12176 12.7691 8.46792 12.4999 7.92948 11.9615C7.39104 11.423 7.12181 10.7692 7.12181 9.99996C7.12181 9.23074 7.39104 8.5769 7.92948 8.03846C8.46792 7.50002 9.12176 7.23079 9.89098 7.23079C10.6602 7.23079 11.314 7.50002 11.8525 8.03846C12.3909 8.5769 12.6601 9.23074 12.6601 9.99996C12.6601 10.2846 12.6181 10.5592 12.534 10.8236C12.4498 11.0882 12.3256 11.3384 12.1615 11.5743L13.9871 13.4L13.291 14.0961Z" fill="#2C2421"/>
</svg>
