<svg width="8" height="10" viewBox="0 0 8 10" fill="none" xmlns="http://www.w3.org/2000/svg">
<path d="M5.08652 4.59613V2.19238H5.83652V4.59613H5.08652ZM2.45189 7.6855C2.23081 7.599 2.05056 7.45654 1.91114 7.25813C1.77173 7.05979 1.70202 6.83433 1.70202 6.58175V2.19238H2.45189V7.6855ZM2.92764 9.75C2.11564 9.75 1.42631 9.465 0.859643 8.895C0.292977 8.32508 0.00964355 7.63413 0.00964355 6.82213V2.32688C0.00964355 1.74996 0.209977 1.25958 0.610644 0.85575C1.01123 0.451917 1.49998 0.25 2.07689 0.25C2.65381 0.25 3.1426 0.451917 3.54327 0.85575C3.94394 1.25958 4.14427 1.74996 4.14427 2.32688V6H3.39427V2.32213C3.3891 1.95288 3.26085 1.64021 3.00952 1.38412C2.75819 1.12804 2.44731 1 2.07689 1C1.70806 1 1.39631 1.12883 1.14164 1.3865C0.886977 1.64425 0.759643 1.95771 0.759643 2.32688V6.82213C0.754477 7.42663 0.963435 7.94071 1.38652 8.36438C1.8096 8.78813 2.32339 9 2.92789 9C3.12464 9 3.31156 8.97613 3.48864 8.92838C3.66573 8.88063 3.83298 8.809 3.99039 8.7135V9.54713C3.82498 9.61379 3.65335 9.66425 3.47552 9.6985C3.2976 9.73283 3.11498 9.75 2.92764 9.75ZM5.08652 9.25V7.84613H3.68277V7.09613H5.08652V5.69238H5.83652V7.09613H7.24039V7.84613H5.83652V9.25H5.08652Z" fill="#2C2421"/>
</svg>
