<svg width="400" height="388" viewBox="0 0 400 388" fill="none" xmlns="http://www.w3.org/2000/svg">
<path fill-rule="evenodd" clip-rule="evenodd" d="M177.481 12.855C177.831 5.87426 183.317 0.612945 190.52 0.215267C196.885 -0.12581 203.248 -0.0120198 209.61 0.215267C216.813 0.726441 222.242 5.87426 222.653 12.855C223.003 35.4197 223.121 57.9844 222.653 80.5492C222.181 87.4733 216.695 92.6777 209.61 93.1892C203.305 93.5869 196.885 93.7573 190.52 93.1892C183.26 92.8484 177.831 87.5302 177.481 80.5492C176.891 57.9844 176.891 35.4197 177.481 12.855Z" fill="#2C2421"/>
<path fill-rule="evenodd" clip-rule="evenodd" d="M177.481 307.3C177.831 300.32 183.317 295.059 190.52 294.66C196.885 294.32 203.248 294.434 209.61 294.66C216.813 295.173 222.242 300.32 222.653 307.3C223.003 329.865 223.121 352.432 222.653 374.996C222.181 381.921 216.695 387.123 209.61 387.636C203.305 388.032 196.885 388.202 190.52 387.636C183.26 387.293 177.831 381.976 177.481 374.996C176.891 352.432 176.891 329.865 177.481 307.3Z" fill="#2C2421"/>
<path fill-rule="evenodd" clip-rule="evenodd" d="M386.716 171.993C393.931 172.339 399.366 177.7 399.776 184.738C400.13 190.956 400.012 197.173 399.776 203.391C399.251 210.426 393.931 215.732 386.716 216.133C363.399 216.476 340.082 216.591 316.761 216.133C309.607 215.676 304.23 210.312 303.701 203.391C303.29 197.229 303.112 190.956 303.701 184.738C304.051 177.641 309.547 172.339 316.761 171.993C340.082 171.421 363.399 171.421 386.716 171.993Z" fill="#2C2421"/>
<path fill-rule="evenodd" clip-rule="evenodd" d="M83.393 171.993C90.6075 172.339 96.0425 177.7 96.4534 184.738C96.8069 190.956 96.689 197.173 96.4534 203.391C95.9277 210.426 90.6075 215.732 83.393 216.133C60.0758 216.476 36.7555 216.591 13.4383 216.133C6.28427 215.676 0.906633 210.312 0.377933 203.391C-0.0329432 197.229 -0.211191 190.956 0.377933 184.738C0.728386 177.641 6.22384 172.339 13.4383 171.993C36.7555 171.421 60.0758 171.421 83.393 171.993Z" fill="#2C2421"/>
<path fill-rule="evenodd" clip-rule="evenodd" d="M316.079 50.3904C321.423 45.6858 329.145 45.7262 334.529 50.3904C339.278 54.518 343.698 58.9675 348.03 63.4977C352.752 68.8059 352.837 76.1812 348.03 81.409C331.81 97.6382 315.423 113.706 298.622 129.371C293.236 133.955 285.556 133.876 280.172 129.371C275.42 125.324 270.755 121.036 266.668 116.265C261.78 111.037 261.822 103.541 266.668 98.3535C282.725 81.9633 299.193 65.9755 316.079 50.3904Z" fill="#2C2421"/>
<path fill-rule="evenodd" clip-rule="evenodd" d="M101.58 258.611C106.925 253.907 114.647 253.948 120.03 258.611C124.78 262.74 129.2 267.189 133.532 271.717C138.254 277.026 138.339 284.401 133.532 289.63C117.311 305.86 100.925 321.929 84.1241 337.592C78.7374 342.176 71.0577 342.097 65.674 337.592C60.9217 333.545 56.2571 329.258 52.1695 324.486C47.2813 319.257 47.3236 311.761 52.1695 306.576C68.2269 290.185 84.6951 274.196 101.58 258.611Z" fill="#2C2421"/>
<path fill-rule="evenodd" clip-rule="evenodd" d="M52.0607 81.3196C47.2148 76.1319 47.257 68.6358 52.0607 63.4082C56.3144 58.7974 60.8975 54.5089 65.5622 50.301C71.0305 45.7171 78.6286 45.6365 84.0153 50.301C100.734 66.0471 117.287 81.9542 133.423 98.264C138.145 103.492 138.064 110.947 133.423 116.175C129.254 120.786 124.837 125.315 119.922 129.283C114.535 134.029 106.813 133.988 101.472 129.283C84.5863 113.697 68.115 97.7097 52.0607 81.3196Z" fill="#2C2421"/>
<path fill-rule="evenodd" clip-rule="evenodd" d="M266.559 289.54C261.713 284.352 261.755 276.855 266.559 271.629C270.813 267.019 275.396 262.729 280.061 258.523C285.529 253.939 293.127 253.857 298.514 258.523C315.233 274.269 331.786 290.176 347.922 306.485C352.644 311.714 352.562 319.169 347.922 324.395C343.752 329.008 339.335 333.536 334.42 337.504C329.033 342.249 321.311 342.208 315.97 337.504C299.085 321.917 282.613 305.931 266.559 289.54Z" fill="#2C2421"/>
</svg>
