<svg width="1044" height="155" viewBox="0 0 1044 155" fill="none" xmlns="http://www.w3.org/2000/svg">
<path fill-rule="evenodd" clip-rule="evenodd" d="M70.9959 5.13539C71.1361 2.34668 73.3308 0.244862 76.2119 0.0859957C78.7583 -0.050259 81.3034 -0.00480174 83.8486 0.0859957C86.7297 0.290202 88.9014 2.34668 89.0658 5.13539C89.2059 14.1496 89.2531 23.1639 89.0658 32.1781C88.8772 34.9442 86.6826 37.0233 83.8486 37.2276C81.3264 37.3865 78.7583 37.4546 76.2119 37.2276C73.3079 37.0915 71.1361 34.967 70.9959 32.1781C70.7603 23.1639 70.7603 14.1496 70.9959 5.13539Z" fill="#2C2421"/>
<path fill-rule="evenodd" clip-rule="evenodd" d="M70.9959 122.762C71.1361 119.973 73.3308 117.871 76.2119 117.712C78.7583 117.576 81.3034 117.622 83.8486 117.712C86.7297 117.917 88.9014 119.973 89.0658 122.762C89.2059 131.776 89.2531 140.791 89.0658 149.805C88.8772 152.571 86.6826 154.65 83.8486 154.855C81.3264 155.013 78.7583 155.081 76.2119 154.855C73.3079 154.718 71.1361 152.594 70.9959 149.805C70.7603 140.791 70.7603 131.776 70.9959 122.762Z" fill="#2C2421"/>
<path fill-rule="evenodd" clip-rule="evenodd" d="M154.695 68.7085C157.58 68.8467 159.755 70.9884 159.919 73.8002C160.06 76.2839 160.013 78.7677 159.919 81.2514C159.709 84.062 157.58 86.1814 154.695 86.3419C145.367 86.479 136.04 86.5247 126.711 86.3419C123.849 86.1591 121.698 84.0163 121.487 81.2514C121.322 78.7899 121.251 76.2839 121.487 73.8002C121.627 70.9649 123.825 68.8467 126.711 68.7085C136.04 68.48 145.367 68.48 154.695 68.7085Z" fill="#2C2421"/>
<path fill-rule="evenodd" clip-rule="evenodd" d="M33.3589 68.7085C36.2449 68.8467 38.419 70.9884 38.5834 73.8002C38.7248 76.2839 38.6776 78.7677 38.5834 81.2514C38.3731 84.062 36.2449 86.1814 33.3589 86.3419C24.0316 86.479 14.703 86.5247 5.37562 86.3419C2.51384 86.1591 0.362672 84.0163 0.151181 81.2514C-0.013178 78.7899 -0.0844807 76.2839 0.151181 73.8002C0.291369 70.9649 2.48967 68.8467 5.37562 68.7085C14.703 68.48 24.0316 68.48 33.3589 68.7085Z" fill="#2C2421"/>
<path fill-rule="evenodd" clip-rule="evenodd" d="M126.438 20.1302C128.576 18.2508 131.665 18.2669 133.819 20.1302C135.718 21.7791 137.486 23.5566 139.219 25.3663C141.108 27.4869 141.142 30.4332 139.219 32.5217C132.731 39.0049 126.176 45.4239 119.455 51.6819C117.3 53.5131 114.228 53.4814 112.075 51.6819C110.174 50.0651 108.308 48.3522 106.673 46.446C104.717 44.3575 104.734 41.3631 106.673 39.2907C113.096 32.7431 119.684 26.3562 126.438 20.1302Z" fill="#2C2421"/>
<path fill-rule="evenodd" clip-rule="evenodd" d="M40.6342 103.311C42.7721 101.432 45.8611 101.448 48.0147 103.311C49.9145 104.961 51.6825 106.738 53.4156 108.547C55.3045 110.667 55.3383 113.614 53.4156 115.703C46.927 122.186 40.372 128.605 33.6514 134.863C31.4966 136.694 28.4246 136.662 26.271 134.863C24.37 133.246 22.504 131.533 20.8689 129.627C18.9135 127.538 18.9304 124.544 20.8689 122.472C27.2922 115.924 33.8798 109.537 40.6342 103.311Z" fill="#2C2421"/>
<path fill-rule="evenodd" clip-rule="evenodd" d="M20.8254 32.4859C18.8869 30.4135 18.9038 27.4189 20.8254 25.3306C22.527 23.4886 24.3603 21.7754 26.2262 20.0945C28.4137 18.2633 31.4531 18.2311 33.6079 20.0945C40.2958 26.3848 46.9174 32.7394 53.3721 39.255C55.261 41.3434 55.2284 44.3218 53.3721 46.4103C51.7043 48.2521 49.9374 50.0616 47.9712 51.6468C45.8164 53.5424 42.7274 53.526 40.5907 51.6468C33.8363 45.4204 27.2474 39.0335 20.8254 32.4859Z" fill="#2C2421"/>
<path fill-rule="evenodd" clip-rule="evenodd" d="M106.629 115.667C104.691 113.594 104.708 110.599 106.629 108.512C108.331 106.67 110.164 104.956 112.03 103.276C114.217 101.445 117.257 101.412 119.412 103.276C126.1 109.566 132.721 115.921 139.176 122.436C141.065 124.525 141.032 127.503 139.176 129.591C137.508 131.434 135.741 133.243 133.775 134.828C131.62 136.723 128.531 136.707 126.395 134.828C119.64 128.601 113.051 122.215 106.629 115.667Z" fill="#2C2421"/>
<path d="M278.031 133.909C270.266 133.909 263.247 132.57 256.972 129.891C250.803 127.212 245.644 123.452 241.496 118.609C237.348 113.664 234.583 107.997 233.2 101.609L249.952 97.4364L251.707 97.7455C253.089 101.558 255.057 104.958 257.61 107.945C260.269 110.83 263.406 113.097 267.022 114.745C270.639 116.394 274.521 117.218 278.669 117.218C282.923 117.218 286.646 116.6 289.837 115.364C293.027 114.024 295.527 112.221 297.335 109.955C299.249 107.585 300.207 104.906 300.207 101.918C300.207 98.2091 298.983 95.2727 296.537 93.1091C294.197 90.8424 290.687 89.0909 286.008 87.8546L265.906 82.7546C256.44 80.2818 249.207 76.3152 244.208 70.8546C239.316 65.3939 236.87 59.0576 236.87 51.8455C236.87 45.7667 238.465 40.4606 241.656 35.9273C244.847 31.2909 249.314 27.6848 255.057 25.1091C260.8 22.4303 267.448 21.0909 274.999 21.0909C282.232 21.0909 288.72 22.3788 294.463 24.9545C300.313 27.4273 305.152 30.9303 308.981 35.4636C312.81 39.997 315.31 45.4061 316.48 51.6909L300.685 55.0909L298.93 54.7818C297.654 49.4242 294.889 45.2515 290.634 42.2636C286.38 39.2758 281.115 37.7818 274.84 37.7818C269.096 37.7818 264.523 39.1212 261.12 41.8C257.716 44.3758 256.014 47.7242 256.014 51.8455C256.014 55.2455 257.237 58.1303 259.684 60.5C262.236 62.8697 265.959 64.6727 270.851 65.9091L290.953 71.0091C300.207 73.3788 307.226 77.1394 312.013 82.2909C316.905 87.3394 319.351 93.6243 319.351 101.145C319.351 107.739 317.65 113.509 314.246 118.455C310.843 123.297 306.003 127.109 299.728 129.891C293.559 132.57 286.327 133.909 278.031 133.909Z" fill="#2C2421"/>
<path d="M373.302 133.909C365.218 133.909 358.092 132.158 351.923 128.655C345.755 125.152 340.915 120.309 337.405 114.127C333.896 107.842 332.141 100.63 332.141 92.4909C332.141 84.4545 333.896 77.3455 337.405 71.1636C340.915 64.8788 345.755 59.9849 351.923 56.4818C358.092 52.9788 365.218 51.2273 373.302 51.2273C381.491 51.2273 388.671 52.9788 394.839 56.4818C401.008 59.9849 405.848 64.8788 409.357 71.1636C412.867 77.3455 414.622 84.4545 414.622 92.4909C414.622 100.63 412.867 107.842 409.357 114.127C405.848 120.309 401.008 125.152 394.839 128.655C388.671 132.158 381.491 133.909 373.302 133.909ZM373.302 117.836C377.981 117.836 382.023 116.806 385.427 114.745C388.83 112.685 391.489 109.748 393.404 105.936C395.318 102.124 396.275 97.6939 396.275 92.6455C396.275 87.3909 395.318 82.9091 393.404 79.2C391.489 75.3879 388.83 72.4515 385.427 70.3909C382.023 68.3303 377.981 67.3 373.302 67.3C368.728 67.3 364.74 68.3303 361.336 70.3909C357.933 72.4515 355.274 75.3879 353.359 79.2C351.445 82.9091 350.488 87.3394 350.488 92.4909C350.488 97.6424 351.445 102.124 353.359 105.936C355.274 109.748 357.933 112.685 361.336 114.745C364.74 116.806 368.728 117.836 373.302 117.836Z" fill="#2C2421"/>
<path d="M480.164 133.909C469.741 133.909 460.541 131.539 452.564 126.8C444.587 122.061 438.365 115.467 433.898 107.018C429.537 98.5697 427.357 88.7303 427.357 77.5C427.357 66.1667 429.537 56.3273 433.898 47.9818C438.365 39.5333 444.587 32.9394 452.564 28.2C460.541 23.4606 469.741 21.0909 480.164 21.0909C491.119 21.0909 500.798 23.8727 509.2 29.4364C517.603 35 523.665 42.7273 527.388 52.6182L511.274 57.1L509.519 56.7909C507.073 50.8151 503.244 46.2303 498.033 43.0364C492.821 39.7394 486.918 38.0909 480.324 38.0909C473.41 38.0909 467.348 39.7394 462.136 43.0364C457.031 46.2303 453.042 50.7636 450.171 56.6364C447.299 62.5091 445.863 69.4636 445.863 77.5C445.863 85.5364 447.299 92.4909 450.171 98.3636C453.042 104.236 457.031 108.821 462.136 112.118C467.348 115.312 473.41 116.909 480.324 116.909C486.918 116.909 492.821 115.261 498.033 111.964C503.244 108.667 507.073 104.082 509.519 98.2091L511.274 97.9L527.388 102.382C523.665 112.273 517.603 120 509.2 125.564C500.798 131.127 491.119 133.909 480.164 133.909Z" fill="#2C2421"/>
<path d="M582.646 131.591V23.4091H600.993V131.591H582.646ZM592.058 86V69H649.173V86H592.058ZM592.058 40.4091V23.4091H653.959V40.4091H592.058Z" fill="#2C2421"/>
<path d="M669.233 131.591V53.5455H687.58V131.591H669.233ZM678.486 41.8C675.295 41.8 672.583 40.7182 670.35 38.5545C668.116 36.3909 666.999 33.7121 666.999 30.5182C666.999 27.5303 668.116 24.9545 670.35 22.7909C672.583 20.5242 675.349 19.3909 678.646 19.3909C681.73 19.3909 684.389 20.5242 686.623 22.7909C688.962 24.9545 690.132 27.5818 690.132 30.6727C690.132 33.7636 688.962 36.3909 686.623 38.5545C684.389 40.7182 681.677 41.8 678.486 41.8Z" fill="#2C2421"/>
<path d="M707.871 131.591V53.5455H725.101V73.4818L720.475 73.1727C722.177 68.6394 724.623 64.7758 727.814 61.5818C731.004 58.2849 734.727 55.7606 738.981 54.0091C743.236 52.1545 747.862 51.2273 752.861 51.2273C758.605 51.2273 763.763 52.4636 768.336 54.9364C773.016 57.3061 776.686 60.8606 779.345 65.6C782.11 70.2364 783.493 76.0576 783.493 83.0636V131.591H765.146V88.4727C765.146 83.5273 764.454 79.5091 763.072 76.4182C761.689 73.3273 759.668 71.0606 757.009 69.6182C754.457 68.1758 751.479 67.4546 748.075 67.4546C744.884 67.4546 741.587 68.2273 738.184 69.7727C734.886 71.3182 732.068 73.8939 729.728 77.5C727.388 81.1061 726.218 86 726.218 92.1818V131.591H707.871Z" fill="#2C2421"/>
<path d="M837.37 133.909C830.137 133.909 823.596 132.158 817.746 128.655C811.896 125.048 807.27 120.155 803.866 113.973C800.463 107.791 798.761 100.682 798.761 92.6455C798.761 84.5061 800.463 77.3455 803.866 71.1636C807.27 64.9818 811.896 60.1394 817.746 56.6364C823.596 53.0303 830.137 51.2273 837.37 51.2273C843.326 51.2273 848.644 52.4121 853.323 54.7818C858.11 57.1515 862.045 60.2424 865.129 64.0546C868.32 67.7636 870.554 71.8333 871.83 76.2636V109.027C870.554 113.355 868.32 117.424 865.129 121.236C862.045 125.048 858.11 128.139 853.323 130.509C848.644 132.776 843.326 133.909 837.37 133.909ZM840.082 117.682C844.762 117.682 848.856 116.652 852.366 114.591C855.876 112.427 858.641 109.439 860.662 105.627C862.683 101.815 863.693 97.4364 863.693 92.4909C863.693 87.5455 862.683 83.2182 860.662 79.5091C858.641 75.697 855.876 72.7091 852.366 70.5455C848.856 68.3818 844.762 67.3 840.082 67.3C835.615 67.3 831.626 68.3818 828.116 70.5455C824.606 72.7091 821.894 75.697 819.98 79.5091C818.065 83.2182 817.108 87.5455 817.108 92.4909C817.108 97.4364 818.065 101.815 819.98 105.627C821.894 109.439 824.606 112.427 828.116 114.591C831.626 116.652 835.615 117.682 840.082 117.682ZM864.332 131.591V107.482L868.161 92.4909L863.215 77.6545V20.3182L881.083 18.1545L881.562 19.3909V131.591H864.332Z" fill="#2C2421"/>
<path d="M939.797 133.909C931.608 133.909 924.375 132.158 918.1 128.655C911.931 125.152 907.092 120.309 903.582 114.127C900.072 107.945 898.317 100.733 898.317 92.4909C898.317 84.3515 900.019 77.1909 903.422 71.0091C906.932 64.7242 911.718 59.8818 917.781 56.4818C923.95 52.9788 931.023 51.2273 939 51.2273C946.977 51.2273 953.89 53.0303 959.74 56.6364C965.696 60.1394 970.323 65.0849 973.62 71.4727C977.023 77.8606 978.725 85.3303 978.725 93.8818V96.8182L976.332 99.1364H906.932V84.3H970.429L960.697 87.8546C960.591 83.5273 959.527 79.8182 957.506 76.7273C955.592 73.5333 953.039 71.1121 949.848 69.4636C946.764 67.7121 943.254 66.8364 939.319 66.8364C935.064 66.8364 931.182 67.8152 927.672 69.7727C924.162 71.6273 921.45 74.2545 919.536 77.6545C917.621 80.9515 916.664 84.8152 916.664 89.2455V95.4273C916.664 99.6515 917.675 103.515 919.695 107.018C921.823 110.418 924.641 113.148 928.151 115.209C931.661 117.27 935.543 118.3 939.797 118.3C943.839 118.3 947.508 117.27 950.806 115.209C954.209 113.045 956.868 110.161 958.782 106.555H960.697L975.534 112.736C972.343 119.433 967.61 124.636 961.335 128.345C955.166 132.055 947.987 133.909 939.797 133.909Z" fill="#2C2421"/>
<path d="M994.543 131.591V53.5455H1011.77V73.4818L1007.15 73.1727C1009.38 67.0939 1013.1 62.303 1018.31 58.8C1023.53 55.297 1029.48 53.5455 1036.18 53.5455H1044V69.4636H1033.47C1029.32 69.4636 1025.71 70.3909 1022.62 72.2455C1019.54 73.997 1017.14 76.5212 1015.44 79.8182C1013.74 83.1152 1012.89 87.0303 1012.89 91.5636V131.591H994.543Z" fill="#2C2421"/>
</svg>
