<svg width="12" height="12" viewBox="0 0 12 12" fill="none" xmlns="http://www.w3.org/2000/svg">
<path d="M5.99994 11.4834C5.86305 11.4834 5.73073 11.4567 5.60298 11.4032C5.47523 11.3497 5.35851 11.274 5.25283 11.176L0.824018 6.74716C0.726018 6.64148 0.650282 6.52477 0.59681 6.39702C0.543338 6.26927 0.516602 6.13695 0.516602 6.00006C0.516602 5.86317 0.542949 5.72929 0.595643 5.59843C0.648435 5.46757 0.72456 5.35241 0.824018 5.25295L5.25283 0.824141C5.35851 0.717196 5.47523 0.639223 5.60298 0.590223C5.73073 0.541223 5.86305 0.516724 5.99994 0.516724C6.13682 0.516724 6.2707 0.541612 6.40156 0.59139C6.53242 0.641071 6.64758 0.718654 6.74704 0.824141L11.1759 5.25295C11.2813 5.35241 11.3589 5.46713 11.4086 5.59712C11.4584 5.72711 11.4833 5.86142 11.4833 6.00006C11.4833 6.13695 11.4588 6.26927 11.4098 6.39702C11.3608 6.52477 11.2828 6.64148 11.1759 6.74716L6.74704 11.176C6.64758 11.2754 6.53286 11.3516 6.40287 11.4043C6.27289 11.457 6.13857 11.4834 5.99994 11.4834ZM5.56244 6.63385H6.43744V3.35829H5.56244V6.63385ZM5.99994 8.15956C6.13342 8.15956 6.24532 8.1144 6.33564 8.02408C6.42596 7.93376 6.47112 7.82186 6.47112 7.68837C6.47112 7.55488 6.42596 7.44298 6.33564 7.35266C6.24532 7.26234 6.13342 7.21718 5.99994 7.21718C5.86645 7.21718 5.75455 7.26234 5.66423 7.35266C5.57391 7.44298 5.52875 7.55488 5.52875 7.68837C5.52875 7.82186 5.57391 7.93376 5.66423 8.02408C5.75455 8.1144 5.86645 8.15956 5.99994 8.15956Z" fill="#D72638"/>
</svg>
